<svg width="22" height="22" viewBox="0 0 22 22" fill="none" xmlns="http://www.w3.org/2000/svg">
<mask id="mask0_863_6106" style="mask-type:alpha" maskUnits="userSpaceOnUse" x="0" y="0" width="22" height="22">
<rect width="22" height="22" fill="#022856"/>
</mask>
<g mask="url(#mask0_863_6106)">
<path d="M15.0019 17.1167L17.9122 14.1984L17.0807 13.3669L15.6015 14.846V11.2241H14.4022V14.846L12.9231 13.3669L12.0836 14.1984L15.0019 17.1167Z" fill="#022856"/>
<path d="M18 18.396H12.0036V19.5953H18V18.396Z" fill="#022856"/>
<path d="M15.5934 3.85242V9.46512H14.3941V3.85242C14.3941 3.78846 14.3701 3.73249 14.3222 3.68452C14.2662 3.62855 14.2102 3.60457 14.1543 3.60457H5.44738C5.38342 3.60457 5.32745 3.62855 5.27948 3.68452C5.22351 3.73249 5.19952 3.78846 5.19952 3.85242V14.9499C5.19952 15.0139 5.22351 15.0698 5.27948 15.1178C5.32745 15.1738 5.38342 15.1977 5.44738 15.1977H10.2446V16.397H5.44738C5.05561 16.397 4.71181 16.2531 4.43197 15.9733C4.14414 15.6855 4.00023 15.3417 4.00023 14.9499V3.85242C4.00023 3.46065 4.14414 3.11685 4.43197 2.82902C4.71181 2.54919 5.05561 2.40527 5.44738 2.40527H14.1543C14.546 2.40527 14.8818 2.54919 15.1697 2.82902C15.4495 3.11685 15.5934 3.46065 15.5934 3.85242Z" fill="#022856"/>
</g>
</svg>
