<svg width="19" height="19" viewBox="0 0 19 19" fill="none" xmlns="http://www.w3.org/2000/svg">
<mask id="mask0_1329_2716" style="mask-type:alpha" maskUnits="userSpaceOnUse" x="0" y="0" width="19" height="19">
<rect width="18.793" height="18.793" fill="#D9D9D9"/>
</mask>
<g mask="url(#mask0_1329_2716)">
<path d="M3.37306 15.2693C2.97749 15.2693 2.64268 15.1323 2.36862 14.8582C2.09455 14.5841 1.95752 14.2493 1.95752 13.8537V4.93922C1.95752 4.54366 2.09455 4.20884 2.36862 3.93478C2.64268 3.66071 2.97749 3.52368 3.37306 3.52368H7.67215L9.23823 5.08976H15.4197C15.8153 5.08976 16.1501 5.22679 16.4242 5.50086C16.6983 5.77492 16.8353 6.10974 16.8353 6.5053V13.8537C16.8353 14.2493 16.6983 14.5841 16.4242 14.8582C16.1501 15.1323 15.8153 15.2693 15.4197 15.2693H3.37306ZM3.37306 14.0947H15.4197C15.4901 14.0947 15.5478 14.0721 15.593 14.027C15.6381 13.9818 15.6607 13.9241 15.6607 13.8537V6.5053C15.6607 6.43496 15.6381 6.37721 15.593 6.33206C15.5478 6.2869 15.4901 6.26432 15.4197 6.26432H8.75783L7.19175 4.69824H3.37306C3.30272 4.69824 3.24497 4.72082 3.19981 4.76598C3.15466 4.81113 3.13208 4.86888 3.13208 4.93922V13.8537C3.13208 13.9241 3.15466 13.9818 3.19981 14.027C3.24497 14.0721 3.30272 14.0947 3.37306 14.0947Z" fill="#02162E"/>
</g>
</svg>
